<svg id="visual" viewBox="0 0 900 600" width="900" height="600" xmlns="http://www.w3.org/2000/svg" xmlns:xlink="http://www.w3.org/1999/xlink" version="1.1"><g stroke-width="1" stroke-linejoin="bevel"><path d="M412 335L303 305L367 439Z" fill="#2b2347" stroke="#2b2347"></path><path d="M303 305L275 412L367 439Z" fill="#00101c" stroke="#00101c"></path><path d="M275 412L335 469L367 439Z" fill="#141d37" stroke="#141d37"></path><path d="M303 305L234 376L275 412Z" fill="#2b2347" stroke="#2b2347"></path><path d="M275 412L174 509L335 469Z" fill="#752656" stroke="#752656"></path><path d="M335 469L391 493L367 439Z" fill="#472652" stroke="#472652"></path><path d="M367 439L498 413L412 335Z" fill="#1f2140" stroke="#1f2140"></path><path d="M391 493L498 413L367 439Z" fill="#39254d" stroke="#39254d"></path><path d="M464 229L423 211L412 335Z" fill="#2b2347" stroke="#2b2347"></path><path d="M412 335L423 211L303 305Z" fill="#2b2347" stroke="#2b2347"></path><path d="M213 212L180 290L303 305Z" fill="#2b2347" stroke="#2b2347"></path><path d="M303 305L180 290L234 376Z" fill="#0b1a2e" stroke="#0b1a2e"></path><path d="M539 337L464 229L412 335Z" fill="#662656" stroke="#662656"></path><path d="M391 493L471 504L498 413Z" fill="#0b1a2e" stroke="#0b1a2e"></path><path d="M572 389L539 337L498 413Z" fill="#00101c" stroke="#00101c"></path><path d="M498 413L539 337L412 335Z" fill="#572755" stroke="#572755"></path><path d="M261 161L213 212L303 305Z" fill="#141d37" stroke="#141d37"></path><path d="M180 290L136 425L234 376Z" fill="#00101c" stroke="#00101c"></path><path d="M234 376L174 509L275 412Z" fill="#662656" stroke="#662656"></path><path d="M335 469L283 600L391 493Z" fill="#1f2140" stroke="#1f2140"></path><path d="M136 425L174 509L234 376Z" fill="#061525" stroke="#061525"></path><path d="M391 493L424 600L471 504Z" fill="#662656" stroke="#662656"></path><path d="M423 211L261 161L303 305Z" fill="#472652" stroke="#472652"></path><path d="M618 527L572 389L498 413Z" fill="#662656" stroke="#662656"></path><path d="M174 509L283 600L335 469Z" fill="#662656" stroke="#662656"></path><path d="M283 600L424 600L391 493Z" fill="#472652" stroke="#472652"></path><path d="M471 504L618 527L498 413Z" fill="#662656" stroke="#662656"></path><path d="M464 229L438 136L423 211Z" fill="#2b2347" stroke="#2b2347"></path><path d="M423 211L438 136L261 161Z" fill="#39254d" stroke="#39254d"></path><path d="M583 120L438 136L464 229Z" fill="#472652" stroke="#472652"></path><path d="M588 269L464 229L539 337Z" fill="#2b2347" stroke="#2b2347"></path><path d="M572 389L588 269L539 337Z" fill="#39254d" stroke="#39254d"></path><path d="M174 509L220 600L283 600Z" fill="#1f2140" stroke="#1f2140"></path><path d="M424 600L492 600L471 504Z" fill="#572755" stroke="#572755"></path><path d="M288 60L235 102L261 161Z" fill="#572755" stroke="#572755"></path><path d="M261 161L235 102L213 212Z" fill="#061525" stroke="#061525"></path><path d="M94 191L69 274L180 290Z" fill="#141d37" stroke="#141d37"></path><path d="M0 374L87 501L136 425Z" fill="#662656" stroke="#662656"></path><path d="M69 274L136 425L180 290Z" fill="#061525" stroke="#061525"></path><path d="M136 425L87 501L174 509Z" fill="#061525" stroke="#061525"></path><path d="M174 509L116 600L220 600Z" fill="#39254d" stroke="#39254d"></path><path d="M94 191L180 290L213 212Z" fill="#1f2140" stroke="#1f2140"></path><path d="M235 102L94 191L213 212Z" fill="#1f2140" stroke="#1f2140"></path><path d="M438 136L288 60L261 161Z" fill="#472652" stroke="#472652"></path><path d="M0 131L0 205L94 191Z" fill="#2b2347" stroke="#2b2347"></path><path d="M492 600L618 527L471 504Z" fill="#752656" stroke="#752656"></path><path d="M572 389L692 374L588 269Z" fill="#0b1a2e" stroke="#0b1a2e"></path><path d="M709 339L618 200L588 269Z" fill="#2b2347" stroke="#2b2347"></path><path d="M588 269L618 200L464 229Z" fill="#061525" stroke="#061525"></path><path d="M378 0L318 0L288 60Z" fill="#572755" stroke="#572755"></path><path d="M87 501L116 600L174 509Z" fill="#061525" stroke="#061525"></path><path d="M618 200L583 120L464 229Z" fill="#572755" stroke="#572755"></path><path d="M69 274L0 374L136 425Z" fill="#061525" stroke="#061525"></path><path d="M87 501L0 600L116 600Z" fill="#662656" stroke="#662656"></path><path d="M0 310L0 374L69 274Z" fill="#662656" stroke="#662656"></path><path d="M681 501L692 374L572 389Z" fill="#141d37" stroke="#141d37"></path><path d="M0 205L0 310L69 274Z" fill="#061525" stroke="#061525"></path><path d="M583 120L533 73L438 136Z" fill="#472652" stroke="#472652"></path><path d="M696 600L681 501L618 527Z" fill="#2b2347" stroke="#2b2347"></path><path d="M618 527L681 501L572 389Z" fill="#141d37" stroke="#141d37"></path><path d="M760 404L709 339L692 374Z" fill="#061525" stroke="#061525"></path><path d="M692 374L709 339L588 269Z" fill="#472652" stroke="#472652"></path><path d="M618 200L660 139L583 120Z" fill="#141d37" stroke="#141d37"></path><path d="M378 0L288 60L438 136Z" fill="#2b2347" stroke="#2b2347"></path><path d="M112 0L87 80L235 102Z" fill="#061525" stroke="#061525"></path><path d="M513 0L378 0L438 136Z" fill="#00101c" stroke="#00101c"></path><path d="M492 600L632 600L618 527Z" fill="#662656" stroke="#662656"></path><path d="M0 374L0 526L87 501Z" fill="#2b2347" stroke="#2b2347"></path><path d="M87 80L94 191L235 102Z" fill="#00101c" stroke="#00101c"></path><path d="M94 191L0 205L69 274Z" fill="#1f2140" stroke="#1f2140"></path><path d="M222 0L235 102L288 60Z" fill="#0b1a2e" stroke="#0b1a2e"></path><path d="M318 0L222 0L288 60Z" fill="#1f2140" stroke="#1f2140"></path><path d="M566 0L513 0L533 73Z" fill="#2b2347" stroke="#2b2347"></path><path d="M703 171L660 139L618 200Z" fill="#061525" stroke="#061525"></path><path d="M566 0L533 73L583 120Z" fill="#2b2347" stroke="#2b2347"></path><path d="M533 73L513 0L438 136Z" fill="#141d37" stroke="#141d37"></path><path d="M709 339L703 171L618 200Z" fill="#662656" stroke="#662656"></path><path d="M680 0L566 0L583 120Z" fill="#0b1a2e" stroke="#0b1a2e"></path><path d="M0 526L0 600L87 501Z" fill="#141d37" stroke="#141d37"></path><path d="M681 501L760 404L692 374Z" fill="#1f2140" stroke="#1f2140"></path><path d="M709 339L791 219L703 171Z" fill="#061525" stroke="#061525"></path><path d="M834 519L760 404L681 501Z" fill="#00101c" stroke="#00101c"></path><path d="M87 80L0 131L94 191Z" fill="#752656" stroke="#752656"></path><path d="M0 0L0 131L87 80Z" fill="#662656" stroke="#662656"></path><path d="M632 600L696 600L618 527Z" fill="#752656" stroke="#752656"></path><path d="M680 0L583 120L660 139Z" fill="#0b1a2e" stroke="#0b1a2e"></path><path d="M222 0L112 0L235 102Z" fill="#572755" stroke="#572755"></path><path d="M813 307L791 219L709 339Z" fill="#061525" stroke="#061525"></path><path d="M783 71L680 0L660 139Z" fill="#141d37" stroke="#141d37"></path><path d="M900 423L813 307L760 404Z" fill="#1f2140" stroke="#1f2140"></path><path d="M760 404L813 307L709 339Z" fill="#39254d" stroke="#39254d"></path><path d="M696 600L766 600L681 501Z" fill="#1f2140" stroke="#1f2140"></path><path d="M783 71L660 139L703 171Z" fill="#472652" stroke="#472652"></path><path d="M112 0L0 0L87 80Z" fill="#1f2140" stroke="#1f2140"></path><path d="M766 600L834 519L681 501Z" fill="#0b1a2e" stroke="#0b1a2e"></path><path d="M900 75L783 71L791 219Z" fill="#2b2347" stroke="#2b2347"></path><path d="M791 219L783 71L703 171Z" fill="#39254d" stroke="#39254d"></path><path d="M834 519L900 423L760 404Z" fill="#061525" stroke="#061525"></path><path d="M813 307L900 220L791 219Z" fill="#00101c" stroke="#00101c"></path><path d="M900 0L765 0L783 71Z" fill="#141d37" stroke="#141d37"></path><path d="M783 71L765 0L680 0Z" fill="#2b2347" stroke="#2b2347"></path><path d="M900 423L900 286L813 307Z" fill="#0b1a2e" stroke="#0b1a2e"></path><path d="M900 286L900 220L813 307Z" fill="#39254d" stroke="#39254d"></path><path d="M900 600L900 523L834 519Z" fill="#662656" stroke="#662656"></path><path d="M834 519L900 523L900 423Z" fill="#472652" stroke="#472652"></path><path d="M766 600L900 600L834 519Z" fill="#061525" stroke="#061525"></path><path d="M900 220L900 75L791 219Z" fill="#472652" stroke="#472652"></path><path d="M900 75L900 0L783 71Z" fill="#141d37" stroke="#141d37"></path></g></svg>